<svg width="332.000000pt" height="405.000000pt" viewBox="0 0 332.000000 405.000000" xmlns="http://www.w3.org/2000/svg">
  <g transform="translate(0.000000,405.000000) scale(0.100000,-0.100000)" fill="#658361" stroke="none">
    <path d="M2600 2051 c-256 -51 -427 -140 -665 -346 -388 -335 -971 -590 -1545
-675 -139 -21 -305 -40 -343 -40 -50 0 -52 -10 -26 -121 100 -425 422 -750
837 -845 l107 -24 682 0 c634 0 689 1 780 19 388 77 700 348 836 728 53 148
57 193 57 733 l0 497 -82 26 c-206 65 -454 84 -638 48z" />
    <path d="M5 1515 c0 -247 1 -347 2 -222 2 126 2 328 0 450 -1 122 -2 20 -2
-228z" />
  </g>
  <g transform="translate(0.000000,405.000000) scale(0.100000,-0.100000)" fill="#c1cdc0" stroke="none">
    <path d="M4 3455 c-1 -342 2 -555 7 -495 4 58 5 112 3 121 -5 20 63 50 171 75
99 24 267 22 370 -4 246 -63 665 -310 1048 -619 93 -74 73 -71 177 -27 240
103 576 214 766 253 183 37 585 95 724 103 l45 3 3 593 2 592 -1194 0 -1193 0
-95 -24 c-185 -47 -352 -137 -489 -264 -69 -63 -179 -199 -179 -220 0 -7 -4
-12 -8 -12 -4 0 -23 -30 -42 -67 -18 -38 -38 -77 -43 -88 -6 -11 -23 -58 -38
-105 l-28 -85 -3 435 c-3 356 -3 326 -4 -165z m2898 313 c364 -181 327 -682
-60 -810 -242 -80 -521 95 -564 354 -55 334 318 607 624 456z" />
    <path d="M3276 824 c-6 -24 -2 -43 8 -33 11 10 17 59 8 59 -5 0 -13 -12 -16
-26z" />
    <path d="M3250 749 c0 -23 -80 -181 -129 -253 -36 -55 -46 -76 -35 -76 9 0 18
9 21 20 3 11 9 20 14 20 5 0 9 7 9 15 0 8 5 15 10 15 6 0 10 7 10 15 0 8 5 15
10 15 6 0 10 7 10 15 0 8 4 15 9 15 9 0 76 141 86 183 5 17 3 27 -4 27 -6 0
-11 -5 -11 -11z" />
    <path d="M80 668 c0 -19 18 -43 25 -36 9 9 -4 48 -16 48 -5 0 -9 -6 -9 -12z" />
    <path d="M110 613 c0 -23 23 -63 37 -63 10 0 11 5 4 18 -18 32 -40 57 -41 45z" />
    <path d="M160 515 c0 -8 5 -15 10 -15 6 0 10 -7 10 -15 0 -8 7 -15 15 -15 12
0 11 5 -3 30 -18 32 -32 39 -32 15z" />
    <path d="M3032 379 c-17 -21 -20 -29 -9 -29 16 0 47 31 47 48 0 19 -14 13 -38
-19z" />
    <path d="M2933 280 c-13 -10 -23 -21 -23 -24 0 -12 28 -6 40 9 20 24 7 35 -17
15z" />
    <path d="M420 235 c0 -9 8 -19 18 -22 9 -4 20 -11 23 -16 4 -5 12 -8 19 -5 7
2 -3 15 -24 31 -28 22 -36 24 -36 12z" />
    <path d="M2810 189 c-60 -41 -182 -102 -247 -123 -46 -15 -71 -36 -44 -36 31
0 251 98 251 112 0 4 7 8 15 8 8 0 15 5 15 10 0 6 7 10 15 10 8 0 15 5 15 10
0 6 7 10 15 10 8 0 15 7 15 15 0 19 3 20 -50 -16z" />
    <path d="M650 91 c0 -12 39 -25 48 -16 7 7 -17 25 -35 25 -7 0 -13 -4 -13 -9z" />
    <path d="M720 62 c0 -8 65 -32 84 -32 21 0 0 19 -33 28 -46 14 -51 15 -51 4z" />
  </g>
  <g transform="translate(0.000000,405.000000) scale(0.100000,-0.100000)" fill="#849c81" stroke="none">
    <path d="M3255 2873 c-16 -2 -68 -7 -115 -13 -47 -5 -107 -12 -135 -15 -67 -8
-115 -14 -145 -20 -14 -2 -42 -7 -62 -10 -41 -5 -168 -28 -263 -46 -153 -29
-503 -143 -730 -239 -55 -23 -109 -43 -120 -44 -37 -5 -677 -312 -720 -346 -5
-4 -48 -27 -95 -50 -47 -24 -148 -78 -226 -122 l-141 -78 -151 0 c-128 0 -152
-2 -152 -15 0 -13 28 -15 193 -15 496 0 905 -78 1367 -260 l48 -19 97 82 c231
194 378 286 540 337 260 81 540 76 803 -13 l72 -25 0 458 c0 431 -1 459 -17
457 -10 -1 -31 -3 -48 -4z" />
    <path d="M5 2410 c0 -256 1 -360 2 -233 2 128 2 338 0 465 -1 128 -2 24 -2
-232z" />
    <path d="M40 1865 c0 -12 13 -15 55 -15 42 0 55 3 55 15 0 12 -13 15 -55 15
-42 0 -55 -3 -55 -15z" />
    <path d="M0 1031 c0 -17 5 -33 10 -36 6 -4 10 8 10 29 0 20 -4 36 -10 36 -5 0
-10 -13 -10 -29z" />
    <path d="M2980 325 c-18 -19 -30 -38 -27 -42 8 -7 77 55 77 69 0 16 -17 7 -50
-27z" />
    <path d="M2560 60 c0 -5 -7 -7 -15 -4 -8 4 -15 1 -15 -5 0 -6 -7 -8 -15 -5 -8
4 -15 1 -15 -5 0 -14 4 -14 51 0 21 7 36 16 33 20 -7 12 -24 11 -24 -1z" />
  </g>
  <g transform="translate(0.000000,405.000000) scale(0.100000,-0.100000)" fill="#93a890" stroke="none">
    <path d="M193 3169 c-50 -10 -111 -28 -136 -38 -25 -11 -48 -17 -51 -14 -2 3
-5 -281 -6 -631 l0 -636 30 0 c19 0 29 4 25 11 -5 7 23 8 91 3 74 -5 95 -4 90
5 -6 9 27 11 138 9 80 -2 147 0 149 3 2 6 230 136 292 166 22 11 117 60 210
108 191 101 507 256 604 298 l64 28 -114 90 c-63 50 -120 93 -127 96 -8 3 -28
19 -45 35 -18 16 -44 34 -59 41 -16 6 -28 15 -28 18 0 9 -223 154 -312 203
-38 21 -68 35 -68 32 0 -3 -8 2 -18 12 -26 26 -303 146 -339 146 -18 1 -33 4
-33 7 0 27 -240 33 -357 8z" />
  </g>
  <g transform="translate(0.000000,405.000000) scale(0.100000,-0.100000)" fill="#748f70" stroke="none">
    <path d="M508 1875 c-2 -2 -87 -5 -188 -6 -102 -2 -216 -4 -253 -7 l-68 -4 2
-469 c1 -258 4 -467 8 -463 3 3 6 15 6 26 0 23 -2 22 105 32 80 7 120 12 185
21 52 8 80 12 135 20 25 3 61 10 80 15 19 5 50 12 68 15 158 27 460 121 642
199 178 77 580 309 580 335 0 4 -62 30 -137 58 -227 85 -481 153 -673 179 -25
3 -54 8 -65 10 -11 2 -47 7 -80 10 -33 3 -71 7 -84 10 -14 2 -72 6 -130 9 -58
4 -111 8 -118 10 -6 2 -13 2 -15 0z" />
    <path d="M10 900 c0 -30 24 -99 32 -94 6 4 6 10 0 16 -6 6 -8 16 -6 23 3 7 1
16 -5 19 -6 4 -8 13 -5 20 3 8 1 17 -5 21 -6 3 -11 1 -11 -5z" />
    <path d="M3279 827 c-1 -4 -2 -10 -3 -14 -1 -5 -5 -14 -9 -20 -5 -7 -5 -13 -1
-13 3 0 1 -6 -5 -14 -7 -8 -8 -17 -3 -20 10 -6 37 73 28 82 -3 3 -7 2 -7 -1z" />
    <path d="M40 783 c0 -26 52 -143 62 -137 6 4 5 10 -3 15 -8 5 -10 9 -6 9 4 0
2 10 -5 23 -13 23 -15 29 -17 50 -1 18 -30 55 -31 40z" />
    <path d="M3215 650 c3 -5 1 -10 -5 -10 -6 0 -8 -4 -5 -10 3 -5 1 -10 -5 -10
-6 0 -8 -4 -5 -10 3 -5 1 -10 -5 -10 -6 0 -8 -4 -5 -10 3 -5 1 -10 -5 -10 -6
0 -8 -5 -4 -12 4 -7 16 6 30 33 26 50 28 59 13 59 -5 0 -7 -4 -4 -10z" />
    <path d="M3154 541 c3 -5 -1 -12 -10 -15 -8 -3 -12 -10 -9 -16 3 -5 1 -10 -4
-10 -6 0 -11 -4 -11 -10 0 -19 16 -10 33 19 20 34 21 41 6 41 -5 0 -8 -4 -5
-9z" />
    <path d="M280 362 c0 -14 79 -86 87 -79 4 4 -11 25 -32 47 -38 39 -55 49 -55
32z" />
    <path d="M2740 140 c0 -6 -4 -8 -10 -5 -5 3 -10 1 -10 -5 0 -6 -4 -8 -10 -5
-5 3 -10 1 -10 -5 0 -6 -4 -8 -10 -5 -5 3 -10 1 -10 -5 0 -6 -4 -8 -10 -5 -5
3 -10 1 -10 -5 0 -6 -4 -8 -10 -5 -5 3 -10 1 -10 -4 0 -16 9 -13 69 18 33 17
50 31 43 35 -7 4 -12 2 -12 -4z" />
    <path d="M736 62 c-3 -5 12 -14 33 -21 48 -14 64 -14 56 0 -4 6 -13 8 -20 5
-7 -2 -18 1 -24 7 -6 6 -11 7 -11 3 0 -5 -6 -3 -14 3 -8 7 -17 8 -20 3z" />
  </g>
  <g transform="translate(0.000000,405.000000) scale(0.100000,-0.100000)" fill="none" stroke="none">
    <path d="M1 3558 c1 -445 2 -486 15 -424 90 453 433 800 885 895 l94 20 -497
0 -498 1 1 -492z" />
    <path d="M3306 935 c-49 -420 -428 -816 -870 -910 l-111 -24 498 0 497 -1 0
495 c0 272 -2 495 -4 495 -2 0 -6 -25 -10 -55z" />
    <path d="M1 493 l-1 -493 498 1 497 0 -110 24 c-438 93 -770 428 -865 875
l-19 85 0 -492z" />
  </g>
  <g transform="translate(0.000000,405.000000) scale(0.100000,-0.100000)" fill="#d0dd97" stroke="none">
    <path d="M2635 3814 c-496 -102 -497 -774 -1 -878 230 -48 466 103 520 334 75
319 -202 610 -519 544z" />
  </g>
  <g transform="translate(0.000000,405.000000) scale(0.100000,-0.100000)" fill="#000000" stroke="none" />
  <g transform="translate(0.000000,405.000000) scale(0.100000,-0.100000)" fill="#000000" stroke="none" />
  <g transform="translate(0.000000,405.000000) scale(0.100000,-0.100000)" fill="#000000" stroke="none" />
  <g transform="translate(0.000000,405.000000) scale(0.100000,-0.100000)" fill="#000000" stroke="none" />
  <g transform="translate(0.000000,405.000000) scale(0.100000,-0.100000)" fill="#000000" stroke="none" />
  <g transform="translate(0.000000,405.000000) scale(0.100000,-0.100000)" fill="#000000" stroke="none" />
  <g transform="translate(0.000000,405.000000) scale(0.100000,-0.100000)" fill="#000000" stroke="none" />
  <g transform="translate(0.000000,405.000000) scale(0.100000,-0.100000)" fill="none" stroke="none" />
  <g transform="translate(0.000000,405.000000) scale(0.100000,-0.100000)" fill="#0000ff" stroke="none" />
  <g transform="translate(0.000000,405.000000) scale(0.100000,-0.100000)" fill="#ff00ff" stroke="none" />
  <g transform="translate(0.000000,405.000000) scale(0.100000,-0.100000)" fill="#000000" stroke="none" />
  <g transform="translate(0.000000,405.000000) scale(0.100000,-0.100000)" fill="#ffff00" stroke="none" />
  <g transform="translate(0.000000,405.000000) scale(0.100000,-0.100000)" fill="#00ff00" stroke="none" />
  <g transform="translate(0.000000,405.000000) scale(0.100000,-0.100000)" fill="#ff0000" stroke="none" />
  <g transform="translate(0.000000,405.000000) scale(0.100000,-0.100000)" fill="#c0c0c0" stroke="none" />
  <g transform="translate(0.000000,405.000000) scale(0.100000,-0.100000)" fill="#808080" stroke="none" />
  <g transform="translate(0.000000,405.000000) scale(0.100000,-0.100000)" fill="#00ffff" stroke="none" />
  <g transform="translate(0.000000,405.000000) scale(0.100000,-0.100000)" fill="#000000" stroke="none" />
</svg>