<svg width="332" height="405" xmlns="http://www.w3.org/2000/svg">

 <g>
  <title>Layer 1</title>
  <g id="svg_1" fill="#658361" transform="translate(0, 405) scale(0.1, -0.1)">
   <path fill="#ff5733" id="svg_2" d="m2610,2051c-256,-51 -427,-140 -665,-346c-388,-335 -971,-590 -1545,-675c-139,-21 -305,-40 -343,-40c-50,0 -52,-10 -26,-121c100,-425 422,-750 837,-845l107,-24l682,0c634,0 689,1 780,19c388,77 700,348 836,728c53,148 57,193 57,733l0,497l-82,26c-206,65 -454,84 -638,48z"/>
   <path fill="#ff5733" id="svg_3" d="m15,1515c0,-247 1,-347 2,-222c2,126 2,328 0,450c-1,122 -2,20 -2,-228z"/>
  </g>
  <g id="svg_4" fill="#c1cdc0" transform="translate(0, 405) scale(0.1, -0.1)">
   <path fill="#ffbcad" id="svg_5" d="m4,3455c-1,-342 2,-555 7,-495c4,58 5,112 3,121c-5,20 63,50 171,75c99,24 267,22 370,-4c246,-63 665,-310 1048,-619c93,-74 73,-71 177,-27c240,103 576,214 766,253c183,37 585,95 724,103l45,3l3,593l2,592l-1194,0l-1193,0l-95,-24c-185,-47 -352,-137 -489,-264c-69,-63 -179,-199 -179,-220c0,-7 -4,-12 -8,-12c-4,0 -23,-30 -42,-67c-18,-38 -38,-77 -43,-88c-6,-11 -23,-58 -38,-105l-28,-85l-3,435c-3,356 -3,326 -4,-165zm2898,313c364,-181 327,-682 -60,-810c-242,-80 -521,95 -564,354c-55,334 318,607 624,456z"/>
   <path fill="#ffbcad" id="svg_6" d="m3276,824c-6,-24 -2,-43 8,-33c11,10 17,59 8,59c-5,0 -13,-12 -16,-26z"/>
   <path fill="#ffbcad" id="svg_7" d="m3250,749c0,-23 -80,-181 -129,-253c-36,-55 -46,-76 -35,-76c9,0 18,9 21,20c3,11 9,20 14,20c5,0 9,7 9,15c0,8 5,15 10,15c6,0 10,7 10,15c0,8 5,15 10,15c6,0 10,7 10,15c0,8 4,15 9,15c9,0 76,141 86,183c5,17 3,27 -4,27c-6,0 -11,-5 -11,-11z"/>
   <path fill="#ffbcad" id="svg_8" d="m80,668c0,-19 18,-43 25,-36c9,9 -4,48 -16,48c-5,0 -9,-6 -9,-12z"/>
   <path fill="#ffbcad" id="svg_9" d="m110,613c0,-23 23,-63 37,-63c10,0 11,5 4,18c-18,32 -40,57 -41,45z"/>
   <path fill="#ffbcad" id="svg_10" d="m160,515c0,-8 5,-15 10,-15c6,0 10,-7 10,-15c0,-8 7,-15 15,-15c12,0 11,5 -3,30c-18,32 -32,39 -32,15z"/>
   <path fill="#ffbcad" id="svg_11" d="m3032,379c-17,-21 -20,-29 -9,-29c16,0 47,31 47,48c0,19 -14,13 -38,-19z"/>
   <path fill="#ffbcad" id="svg_12" d="m2933,280c-13,-10 -23,-21 -23,-24c0,-12 28,-6 40,9c20,24 7,35 -17,15z"/>
   <path fill="#ffbcad" id="svg_13" d="m420,235c0,-9 8,-19 18,-22c9,-4 20,-11 23,-16c4,-5 12,-8 19,-5c7,2 -3,15 -24,31c-28,22 -36,24 -36,12z"/>
   <path fill="#ffbcad" id="svg_14" d="m2810,189c-60,-41 -182,-102 -247,-123c-46,-15 -71,-36 -44,-36c31,0 251,98 251,112c0,4 7,8 15,8c8,0 15,5 15,10c0,6 7,10 15,10c8,0 15,5 15,10c0,6 7,10 15,10c8,0 15,7 15,15c0,19 3,20 -50,-16z"/>
   <path fill="#ffbcad" id="svg_15" d="m650,91c0,-12 39,-25 48,-16c7,7 -17,25 -35,25c-7,0 -13,-4 -13,-9z"/>
   <path fill="#ffbcad" id="svg_16" d="m720,62c0,-8 65,-32 84,-32c21,0 0,19 -33,28c-46,14 -51,15 -51,4z"/>
  </g>
  <g id="svg_17" fill="#849c81" transform="translate(0, 405) scale(0.1, -0.1)">
   <path fill="#ff795c" id="svg_18" d="m3255,2873c-16,-2 -68,-7 -115,-13c-47,-5 -107,-12 -135,-15c-67,-8 -115,-14 -145,-20c-14,-2 -42,-7 -62,-10c-41,-5 -168,-28 -263,-46c-153,-29 -503,-143 -730,-239c-55,-23 -109,-43 -120,-44c-37,-5 -677,-312 -720,-346c-5,-4 -48,-27 -95,-50c-47,-24 -148,-78 -226,-122l-141,-78l-151,0c-128,0 -152,-2 -152,-15c0,-13 28,-15 193,-15c496,0 905,-78 1367,-260l48,-19l97,82c231,194 378,286 540,337c260,81 540,76 803,-13l72,-25l0,458c0,431 -1,459 -17,457c-10,-1 -31,-3 -48,-4z"/>
   <path fill="#ff795c" id="svg_19" d="m5,2410c0,-256 1,-360 2,-233c2,128 2,338 0,465c-1,128 -2,24 -2,-232z"/>
   <path fill="#ff795c" id="svg_20" d="m40,1865c0,-12 13,-15 55,-15c42,0 55,3 55,15c0,12 -13,15 -55,15c-42,0 -55,-3 -55,-15z"/>
   <path fill="#ff795c" id="svg_21" d="m0,1031c0,-17 5,-33 10,-36c6,-4 10,8 10,29c0,20 -4,36 -10,36c-5,0 -10,-13 -10,-29z"/>
   <path fill="#ff795c" id="svg_22" d="m2980,325c-18,-19 -30,-38 -27,-42c8,-7 77,55 77,69c0,16 -17,7 -50,-27z"/>
   <path fill="#ff795c" id="svg_23" d="m2560,60c0,-5 -7,-7 -15,-4c-8,4 -15,1 -15,-5c0,-6 -7,-8 -15,-5c-8,4 -15,1 -15,-5c0,-14 4,-14 51,0c21,7 36,16 33,20c-7,12 -24,11 -24,-1z"/>
  </g>
  <g id="svg_24" fill="#93a890" transform="translate(0, 405) scale(0.1, -0.1)">
   <path fill="#ff8970" id="svg_25" d="m193,3169c-50,-10 -111,-28 -136,-38c-25,-11 -48,-17 -51,-14c-2,3 -5,-281 -6,-631l0,-636l30,0c19,0 29,4 25,11c-5,7 23,8 91,3c74,-5 95,-4 90,5c-6,9 27,11 138,9c80,-2 147,0 149,3c2,6 230,136 292,166c22,11 117,60 210,108c191,101 507,256 604,298l64,28l-114,90c-63,50 -120,93 -127,96c-8,3 -28,19 -45,35c-18,16 -44,34 -59,41c-16,6 -28,15 -28,18c0,9 -223,154 -312,203c-38,21 -68,35 -68,32c0,-3 -8,2 -18,12c-26,26 -303,146 -339,146c-18,1 -33,4 -33,7c0,27 -240,33 -357,8z"/>
  </g>
  <g id="svg_26" fill="#748f70" transform="translate(0, 405) scale(0.1, -0.1)">
   <path fill="#ff6747" id="svg_27" d="m518,1885c-2,-2 -87,-5 -188,-6c-102,-2 -216,-4 -253,-7l-68,-4l2,-469c1,-258 4,-467 8,-463c3,3 6,15 6,26c0,23 -2,22 105,32c80,7 120,12 185,21c52,8 80,12 135,20c25,3 61,10 80,15c19,5 50,12 68,15c158,27 460,121 642,199c178,77 580,309 580,335c0,4 -62,30 -137,58c-227,85 -481,153 -673,179c-25,3 -54,8 -65,10c-11,2 -47,7 -80,10c-33,3 -71,7 -84,10c-14,2 -72,6 -130,9c-58,4 -111,8 -118,10c-6,2 -13,2 -15,0z"/>
   <path fill="#ff6747" id="svg_28" d="m20,910c0,-30 24,-99 32,-94c6,4 6,10 0,16c-6,6 -8,16 -6,23c3,7 1,16 -5,19c-6,4 -8,13 -5,20c3,8 1,17 -5,21c-6,3 -11,1 -11,-5z"/>
   <path fill="#ff6747" id="svg_29" d="m3289,837c-1,-4 -2,-10 -3,-14c-1,-5 -5,-14 -9,-20c-5,-7 -5,-13 -1,-13c3,0 1,-6 -5,-14c-7,-8 -8,-17 -3,-20c10,-6 37,73 28,82c-3,3 -7,2 -7,-1z"/>
   <path fill="#ff6747" id="svg_30" d="m50,793c0,-26 52,-143 62,-137c6,4 5,10 -3,15c-8,5 -10,9 -6,9c4,0 2,10 -5,23c-13,23 -15,29 -17,50c-1,18 -30,55 -31,40z"/>
   <path fill="#ff6747" id="svg_31" d="m3225,660c3,-5 1,-10 -5,-10c-6,0 -8,-4 -5,-10c3,-5 1,-10 -5,-10c-6,0 -8,-4 -5,-10c3,-5 1,-10 -5,-10c-6,0 -8,-4 -5,-10c3,-5 1,-10 -5,-10c-6,0 -8,-5 -4,-12c4,-7 16,6 30,33c26,50 28,59 13,59c-5,0 -7,-4 -4,-10z"/>
   <path fill="#ff6747" id="svg_32" d="m3164,551c3,-5 -1,-12 -10,-15c-8,-3 -12,-10 -9,-16c3,-5 1,-10 -4,-10c-6,0 -11,-4 -11,-10c0,-19 16,-10 33,19c20,34 21,41 6,41c-5,0 -8,-4 -5,-9z"/>
   <path fill="#ff6747" id="svg_33" d="m290,372c0,-14 79,-86 87,-79c4,4 -11,25 -32,47c-38,39 -55,49 -55,32z"/>
   <path fill="#ff6747" id="svg_34" d="m2750,150c0,-6 -4,-8 -10,-5c-5,3 -10,1 -10,-5c0,-6 -4,-8 -10,-5c-5,3 -10,1 -10,-5c0,-6 -4,-8 -10,-5c-5,3 -10,1 -10,-5c0,-6 -4,-8 -10,-5c-5,3 -10,1 -10,-5c0,-6 -4,-8 -10,-5c-5,3 -10,1 -10,-4c0,-16 9,-13 69,18c33,17 50,31 43,35c-7,4 -12,2 -12,-4z"/>
   <path fill="#ff6747" id="svg_35" d="m746,72c-3,-5 12,-14 33,-21c48,-14 64,-14 56,0c-4,6 -13,8 -20,5c-7,-2 -18,1 -24,7c-6,6 -11,7 -11,3c0,-5 -6,-3 -14,3c-8,7 -17,8 -20,3z"/>
  </g>
  <g id="svg_36" fill="none" transform="translate(0.000000,405.000000) scale(0.100000,-0.100000)">
   <path id="svg_37" d="m1,3558c1,-445 2,-486 15,-424c90,453 433,800 885,895l94,20l-497,0l-498,1l1,-492z"/>
   <path id="svg_38" d="m3306,935c-49,-420 -428,-816 -870,-910l-111,-24l498,0l497,-1l0,495c0,272 -2,495 -4,495c-2,0 -6,-25 -10,-55z"/>
   <path id="svg_39" d="m1,493l-1,-493l498,1l497,0l-110,24c-438,93 -770,428 -865,875l-19,85l0,-492z"/>
  </g>
  <g id="svg_40" fill="#d0dd97" transform="translate(0, 405) scale(0.1, -0.1)">
   <path fill="#48484a" id="svg_41" d="m2625,3814c-496,-102 -497,-774 -1,-878c230,-48 466,103 520,334c75,319 -202,610 -519,544z"/>
  </g>
  <g id="svg_42" fill="#000000" transform="translate(0.000000,405.000000) scale(0.100000,-0.100000)"/>
  <g id="svg_43" fill="#000000" transform="translate(0.000000,405.000000) scale(0.100000,-0.100000)"/>
  <g id="svg_44" fill="#000000" transform="translate(0.000000,405.000000) scale(0.100000,-0.100000)"/>
  <g id="svg_45" fill="#000000" transform="translate(0.000000,405.000000) scale(0.100000,-0.100000)"/>
  <g id="svg_46" fill="#000000" transform="translate(0.000000,405.000000) scale(0.100000,-0.100000)"/>
  <g id="svg_47" fill="#000000" transform="translate(0.000000,405.000000) scale(0.100000,-0.100000)"/>
  <g id="svg_48" fill="#000000" transform="translate(0.000000,405.000000) scale(0.100000,-0.100000)"/>
  <g id="svg_49" fill="none" transform="translate(0.000000,405.000000) scale(0.100000,-0.100000)"/>
  <g id="svg_50" fill="#0000ff" transform="translate(0.000000,405.000000) scale(0.100000,-0.100000)"/>
  <g id="svg_51" fill="#ff00ff" transform="translate(0.000000,405.000000) scale(0.100000,-0.100000)"/>
  <g id="svg_52" fill="#000000" transform="translate(0.000000,405.000000) scale(0.100000,-0.100000)"/>
  <g id="svg_53" fill="#ffff00" transform="translate(0.000000,405.000000) scale(0.100000,-0.100000)"/>
  <g id="svg_54" fill="#00ff00" transform="translate(0.000000,405.000000) scale(0.100000,-0.100000)"/>
  <g id="svg_55" fill="#ff0000" transform="translate(0.000000,405.000000) scale(0.100000,-0.100000)"/>
  <g id="svg_56" fill="#c0c0c0" transform="translate(0.000000,405.000000) scale(0.100000,-0.100000)"/>
  <g id="svg_57" fill="#808080" transform="translate(0.000000,405.000000) scale(0.100000,-0.100000)"/>
  <g id="svg_58" fill="#00ffff" transform="translate(0.000000,405.000000) scale(0.100000,-0.100000)"/>
  <g id="svg_59" fill="#000000" transform="translate(0.000000,405.000000) scale(0.100000,-0.100000)"/>
 </g>
</svg>